HIERARCHY
ROOT Hips
{
  OFFSET 5.80788e-005 67.184 3.4734
  CHANNELS 6 Xposition Yposition Zposition Zrotation Xrotation Yrotation
  JOINT Chest
  {
    OFFSET 0 8.7983 -4.7612
    CHANNELS 6 Xposition Yposition Zposition Zrotation Xrotation Yrotation
    JOINT Chest2
    {
      OFFSET 0 8.0291 0.4195
      CHANNELS 6 Xposition Yposition Zposition Zrotation Xrotation Yrotation
      JOINT Chest3
      {
        OFFSET 0 9.9351 -2.2114
        CHANNELS 6 Xposition Yposition Zposition Zrotation Xrotation Yrotation
        JOINT Neck
        {
          OFFSET 0 22.3885 -0.4656
          CHANNELS 6 Xposition Yposition Zposition Zrotation Xrotation Yrotation
          JOINT Head
          {
            OFFSET -0.0001 12.643 3.4389
            CHANNELS 6 Xposition Yposition Zposition Zrotation Xrotation Yrotation
            End Site
            {
              OFFSET 0.0001 17.6655 0.5274
            }
          }
        }
        JOINT LeftCollar
        {
          OFFSET 2.2603 21.606 7.4023
          CHANNELS 6 Xposition Yposition Zposition Zrotation Xrotation Yrotation
          JOINT LeftShoulder
          {
            OFFSET 13.5163 -1.1332 -5.0146
            CHANNELS 6 Xposition Yposition Zposition Zrotation Xrotation Yrotation
            JOINT LeftElbow
            {
              OFFSET -0.0995 -28.05 -0.2431
              CHANNELS 6 Xposition Yposition Zposition Zrotation Xrotation Yrotation
              JOINT LeftWrist
              {
                OFFSET 0.0679 -23.3996 -0.1402
                CHANNELS 6 Xposition Yposition Zposition Zrotation Xrotation Yrotation
                JOINT LeftFinger1
                {
                  OFFSET 0.7932 -9.069 2.5189
                  CHANNELS 6 Xposition Yposition Zposition Zrotation Xrotation Yrotation
                  JOINT LeftFinger11
                  {
                    OFFSET -0.8272 -3.3923 0.5977
                    CHANNELS 6 Xposition Yposition Zposition Zrotation Xrotation Yrotation
                    JOINT LeftFinger12
                    {
                      OFFSET -0.5649 -2.3158 0.4082
                      CHANNELS 6 Xposition Yposition Zposition Zrotation Xrotation Yrotation
                      End Site
                      {
                        OFFSET -0.4919 -1.6479 0.2673
                      }
                    }
                  }
                }
                JOINT LeftFinger2
                {
                  OFFSET 0.9159 -9.2044 0.2193
                  CHANNELS 6 Xposition Yposition Zposition Zrotation Xrotation Yrotation
                  JOINT LeftFinger21
                  {
                    OFFSET 0.0117 -4.1944 -0.0248
                    CHANNELS 6 Xposition Yposition Zposition Zrotation Xrotation Yrotation
                    JOINT LeftFinger22
                    {
                      OFFSET 0.0071 -2.3249 -0.0142
                      CHANNELS 6 Xposition Yposition Zposition Zrotation Xrotation Yrotation
                      End Site
                      {
                        OFFSET -0.1475 -2.0882 0.0028
                      }
                    }
                  }
                }
                JOINT LeftFinger3
                {
                  OFFSET 0.6113 -8.7231 -2.0637
                  CHANNELS 6 Xposition Yposition Zposition Zrotation Xrotation Yrotation
                  JOINT LeftFinger31
                  {
                    OFFSET -0.1927 -3.8059 -0.2383
                    CHANNELS 6 Xposition Yposition Zposition Zrotation Xrotation Yrotation
                    JOINT LeftFinger32
                    {
                      OFFSET -0.1091 -2.1688 -0.1362
                      CHANNELS 6 Xposition Yposition Zposition Zrotation Xrotation Yrotation
                      End Site
                      {
                        OFFSET -0.2358 -1.9176 -0.0906
                      }
                    }
                  }
                }
                JOINT LeftFinger4
                {
                  OFFSET -0.6151 -8.0947 -3.5641
                  CHANNELS 6 Xposition Yposition Zposition Zrotation Xrotation Yrotation
                  JOINT LeftFinger41
                  {
                    OFFSET -0.4882 -2.341 -0.6462
                    CHANNELS 6 Xposition Yposition Zposition Zrotation Xrotation Yrotation
                    JOINT LeftFinger42
                    {
                      OFFSET -0.3575 -1.7167 -0.4742
                      CHANNELS 6 Xposition Yposition Zposition Zrotation Xrotation Yrotation
                      End Site
                      {
                        OFFSET -0.4187 -1.5237 -0.3496
                      }
                    }
                  }
                }
                JOINT LeftFinger0
                {
                  OFFSET -1.42 -1.8761 1.4223
                  CHANNELS 6 Xposition Yposition Zposition Zrotation Xrotation Yrotation
                  JOINT LeftFinger01
                  {
                    OFFSET -1.1471 -3.4929 2.6334
                    CHANNELS 6 Xposition Yposition Zposition Zrotation Xrotation Yrotation
                    JOINT LeftFinger02
                    {
                      OFFSET -0.823 -2.3 1.6571
                      CHANNELS 6 Xposition Yposition Zposition Zrotation Xrotation Yrotation
                      End Site
                      {
                        OFFSET -0.5822 -1.6914 1.1582
                      }
                    }
                  }
                }
              }
            }
          }
        }
        JOINT RightCollar
        {
          OFFSET -2.2603 21.606 7.4023
          CHANNELS 6 Xposition Yposition Zposition Zrotation Xrotation Yrotation
          JOINT RightShoulder
          {
            OFFSET -13.5187 -1.1334 -5.0155
            CHANNELS 6 Xposition Yposition Zposition Zrotation Xrotation Yrotation
            JOINT RightElbow
            {
              OFFSET 0.0994 -28.0499 -0.2431
              CHANNELS 6 Xposition Yposition Zposition Zrotation Xrotation Yrotation
              JOINT RightWrist
              {
                OFFSET -0.0679 -23.3996 -0.1402
                CHANNELS 6 Xposition Yposition Zposition Zrotation Xrotation Yrotation
                JOINT RightFinger1
                {
                  OFFSET -0.7932 -9.0691 2.5189
                  CHANNELS 6 Xposition Yposition Zposition Zrotation Xrotation Yrotation
                  JOINT RightFinger11
                  {
                    OFFSET 0.8272 -3.3923 0.5977
                    CHANNELS 6 Xposition Yposition Zposition Zrotation Xrotation Yrotation
                    JOINT RightFinger12
                    {
                      OFFSET 0.565 -2.3158 0.4082
                      CHANNELS 6 Xposition Yposition Zposition Zrotation Xrotation Yrotation
                      End Site
                      {
                        OFFSET 0.4919 -1.6479 0.2673
                      }
                    }
                  }
                }
                JOINT RightFinger2
                {
                  OFFSET -0.916 -9.2044 0.2193
                  CHANNELS 6 Xposition Yposition Zposition Zrotation Xrotation Yrotation
                  JOINT RightFinger21
                  {
                    OFFSET -0.0117 -4.1944 -0.0248
                    CHANNELS 6 Xposition Yposition Zposition Zrotation Xrotation Yrotation
                    JOINT RightFinger22
                    {
                      OFFSET -0.0071 -2.3249 -0.0142
                      CHANNELS 6 Xposition Yposition Zposition Zrotation Xrotation Yrotation
                      End Site
                      {
                        OFFSET 0.1475 -2.0882 0.0028
                      }
                    }
                  }
                }
                JOINT RightFinger3
                {
                  OFFSET -0.6113 -8.7231 -2.0637
                  CHANNELS 6 Xposition Yposition Zposition Zrotation Xrotation Yrotation
                  JOINT RightFinger31
                  {
                    OFFSET 0.1927 -3.8059 -0.2383
                    CHANNELS 6 Xposition Yposition Zposition Zrotation Xrotation Yrotation
                    JOINT RightFinger32
                    {
                      OFFSET 0.1091 -2.1688 -0.1362
                      CHANNELS 6 Xposition Yposition Zposition Zrotation Xrotation Yrotation
                      End Site
                      {
                        OFFSET 0.2358 -1.9176 -0.0906
                      }
                    }
                  }
                }
                JOINT RightFinger4
                {
                  OFFSET 0.6151 -8.0947 -3.564
                  CHANNELS 6 Xposition Yposition Zposition Zrotation Xrotation Yrotation
                  JOINT RightFinger41
                  {
                    OFFSET 0.4882 -2.341 -0.6462
                    CHANNELS 6 Xposition Yposition Zposition Zrotation Xrotation Yrotation
                    JOINT RightFinger42
                    {
                      OFFSET 0.3574 -1.7166 -0.4742
                      CHANNELS 6 Xposition Yposition Zposition Zrotation Xrotation Yrotation
                      End Site
                      {
                        OFFSET 0.4187 -1.5237 -0.3496
                      }
                    }
                  }
                }
                JOINT RightFinger0
                {
                  OFFSET 1.4199 -1.8761 1.4221
                  CHANNELS 6 Xposition Yposition Zposition Zrotation Xrotation Yrotation
                  JOINT RightFinger01
                  {
                    OFFSET 1.1472 -3.4929 2.6336
                    CHANNELS 6 Xposition Yposition Zposition Zrotation Xrotation Yrotation
                    JOINT RightFinger02
                    {
                      OFFSET 0.8229 -2.3 1.6571
                      CHANNELS 6 Xposition Yposition Zposition Zrotation Xrotation Yrotation
                      End Site
                      {
                        OFFSET 0.5822 -1.6914 1.1582
                      }
                    }
                  }
                }
              }
            }
          }
        }
      }
    }
  }
  JOINT RightHip
  {
    OFFSET -9.412 3.9771 -0.7758
    CHANNELS 6 Xposition Yposition Zposition Zrotation Xrotation Yrotation
    JOINT RightKnee
    {
      OFFSET -0.7531 -40.938 0
      CHANNELS 6 Xposition Yposition Zposition Zrotation Xrotation Yrotation
      JOINT RightAnkle
      {
        OFFSET 0 -40.1986 0
        CHANNELS 6 Xposition Yposition Zposition Zrotation Xrotation Yrotation
        JOINT RightToe
        {
          OFFSET 0 -4.4182 9.239
          CHANNELS 6 Xposition Yposition Zposition Zrotation Xrotation Yrotation
          End Site
          {
            OFFSET 0 0 6.1981
          }
        }
      }
    }
  }
  JOINT LeftHip
  {
    OFFSET 9.4119 3.9773 -0.7758
    CHANNELS 6 Xposition Yposition Zposition Zrotation Xrotation Yrotation
    JOINT LeftKnee
    {
      OFFSET 0.7532 -40.9383 0
      CHANNELS 6 Xposition Yposition Zposition Zrotation Xrotation Yrotation
      JOINT LeftAnkle
      {
        OFFSET 0 -40.1986 0
        CHANNELS 6 Xposition Yposition Zposition Zrotation Xrotation Yrotation
        JOINT LeftToe
        {
          OFFSET 0 -4.4182 9.239
          CHANNELS 6 Xposition Yposition Zposition Zrotation Xrotation Yrotation
          End Site
          {
            OFFSET 0 0 6.1981
          }
        }
      }
    }
  }
}
MOTION
Frames:	4
Frame Time:	0.0333333
5.80788e-005 67.184 3.4734 0 0 -0 0 8.7983 -4.7612 0 0 -0 0 8.0291 0.4195 0 0 -0 0 9.9351 -2.2114 0 0 -0 0 22.3885 -0.4656 0 0 -0 -0.0001 12.643 3.4389 0 0 -0 2.2603 21.606 7.4023 0 0 -12.5014 13.5163 -1.1332 -5.0146 88.1196 14.2451 10.6914 -0.0995 -28.05 -0.2431 -0.00160068 -0.00239207 0.000740045 0.0679 -23.3996 -0.1402 -8.4365e-005 7.00714e-005 -9.52055e-007 0.7932 -9.069 2.5189 9.93923e-017 -1.98785e-016 -1.59028e-015 -0.8272 -3.3923 0.5977 9.93923e-017 -5.96354e-016 -1.59028e-015 -0.5649 -2.3158 0.4082 -9.93923e-017 -5.96354e-016 -1.59028e-015 0.9159 -9.2044 0.2193 9.93923e-017 -1.98785e-016 -1.59028e-015 0.0117 -4.1944 -0.0248 -0.0128176 0.00232552 8.52707e-005 0.0071 -2.3249 -0.0142 9.93923e-017 5.96354e-016 -0 0.6113 -8.7231 -2.0637 9.93923e-017 -1.98785e-016 -1.59028e-015 -0.1927 -3.8059 -0.2383 -0.0160551 0.00299681 0.000857156 -0.1091 -2.1688 -0.1362 -2.48481e-016 0 3.18055e-015 -0.6151 -8.0947 -3.5641 9.93923e-017 -1.98785e-016 -1.59028e-015 -0.4882 -2.341 -0.6462 -0.0125865 0.0031206 0.00282719 -0.3575 -1.7167 -0.4742 0 1.98785e-016 -0 -1.42 -1.8761 1.4223 9.93923e-017 -1.98785e-016 -1.59028e-015 -1.1471 -3.4929 2.6334 9.93923e-017 -5.96354e-016 -1.59028e-015 -0.823 -2.3 1.6571 -9.93923e-017 -5.96354e-016 -1.59028e-015 -2.2603 21.606 7.4023 -0.865644 0.16582 7.03859 -13.5187 -1.1334 -5.0155 -88.0329 10.2057 -10.5567 0.0994 -28.0499 -0.2431 0.0015593 -0.00248883 -0.000788628 -0.0679 -23.3996 -0.1402 7.87605e-005 4.10553e-005 1.24965e-005 -0.7932 -9.0691 2.5189 -3.97569e-016 -7.95139e-016 3.18055e-015 0.8272 -3.3923 0.5977 -1.98785e-016 -3.97569e-016 3.18055e-015 0.565 -2.3158 0.4082 -1.98785e-016 0 3.18055e-015 -0.916 -9.2044 0.2193 -3.97569e-016 -7.95139e-016 3.18055e-015 -0.0117 -4.1944 -0.0248 0.0129473 0.00231697 -8.70038e-005 -0.0071 -2.3249 -0.0142 9.93923e-017 -7.95139e-016 1.59028e-015 -0.6113 -8.7231 -2.0637 -3.97569e-016 -7.95139e-016 3.18055e-015 0.1927 -3.8059 -0.2383 0.0163314 0.00303369 -0.000872333 0.1091 -2.1688 -0.1362 3.97569e-016 7.95139e-016 -3.18055e-015 0.6151 -8.0947 -3.564 -3.97569e-016 -7.95139e-016 3.18055e-015 0.4882 -2.341 -0.6462 0.0145763 0.00367772 -0.00326275 0.3574 -1.7166 -0.4742 9.93923e-017 -3.97569e-016 -0 1.4199 -1.8761 1.4221 -3.97569e-016 -7.95139e-016 3.18055e-015 1.1472 -3.4929 2.6336 -1.98785e-016 -3.97569e-016 3.18055e-015 0.8229 -2.3 1.6571 -1.98785e-016 0 3.18055e-015 -9.412 3.9771 -0.7758 3.42485 1.36937 -0.0640303 -0.7531 -40.938 0 0.000136572 0.69354 0.00145564 1.77636e-015 -40.1986 -1.11022e-016 -3.42573 -2.06297 -0.0607933 8.88178e-016 -4.4182 9.239 -3.19502e-024 0 -1.48106e-024 9.4119 3.9773 -0.7758 -3.42498 1.36123 0.0639712 0.7532 -40.9383 2.22045e-016 -6.769e-005 0.712612 -0.0012277 8.88179e-016 -40.1986 0 3.42582 -2.07388 0.0612819 -8.88178e-016 -4.4182 9.239 2.55305e-023 0 -2.31416e-026 
42.3307 -8.68417 9.23934 1.66492e-009 -26.5637 3.72305e-009 0 8.7983 -4.7612 -0.0114654 -3.13144 -0.138774 0 8.0291 0.4195 -0.0306086 -6.26283 -0.278802 0 9.9351 -2.2114 -0.0306087 -6.26283 -0.278803 0 22.3885 -0.4656 3.60864e-007 18.986 -1.40549e-006 -0.0001 12.643 3.4389 -6.16154e-008 9.31371 -1.34012e-008 2.2603 21.606 7.4023 -14.8218 14.7999 -9.0637 13.5163 -1.1332 -5.0146 32.6709 -36.2867 34.7546 -0.0995 -28.05 -0.2431 2.58115 -21.3092 -34.8954 0.0679 -23.3996 -0.1402 -57.0475 17.8612 -8.27286 0.7932 -9.069 2.5189 -2.01895e-006 -5.84786e-006 5.51021e-006 -0.8272 -3.3923 0.5977 2.01895e-006 5.84786e-006 -5.51021e-006 -0.5649 -2.3158 0.4082 3.18055e-015 2.38542e-014 -6.36111e-015 0.9159 -9.2044 0.2193 -2.01895e-006 -5.84786e-006 5.51021e-006 0.0117 -4.1944 -0.0248 -0.0128189 0.00231975 8.47932e-005 0.0071 -2.3249 -0.0142 -3.7528e-006 1.88395e-006 -2.98592e-006 0.6113 -8.7231 -2.0637 -2.01895e-006 -5.84786e-006 5.51021e-006 -0.1927 -3.8059 -0.2383 -0.0160452 0.00299534 0.000847748 -0.1091 -2.1688 -0.1362 -2.18771e-006 -5.90677e-008 -6.71153e-007 -0.6151 -8.0947 -3.5641 -2.01895e-006 -5.84786e-006 5.51021e-006 -0.4882 -2.341 -0.6462 -0.0125744 0.00311545 0.00282141 -0.3575 -1.7167 -0.4742 5.29669e-031 -4.77083e-015 6.36111e-015 -1.42 -1.8761 1.4223 -2.01895e-006 -5.84786e-006 5.51021e-006 -1.1471 -3.4929 2.6334 2.01895e-006 5.84786e-006 -5.51021e-006 -0.823 -2.3 1.6571 3.18055e-015 2.38542e-014 -6.36111e-015 -2.2603 21.606 7.4023 13.9586 14.7247 4.07962 -13.5187 -1.1334 -5.0155 -29.0319 -37.2963 -29.2609 0.0994 -28.0499 -0.2431 -3.42772 -22.6494 34.0821 -0.0679 -23.3996 -0.1402 56.8117 18.7557 9.86841 -0.7932 -9.0691 2.5189 5.10457e-006 4.50044e-006 5.43682e-006 0.8272 -3.3923 0.5977 -5.10457e-006 -4.50044e-006 -5.43682e-006 0.565 -2.3158 0.4082 9.54166e-015 1.43125e-014 7.95139e-015 -0.916 -9.2044 0.2193 5.10457e-006 4.50044e-006 5.43682e-006 -0.0117 -4.1944 -0.0248 0.0129695 0.00231964 -8.45319e-005 -0.0071 -2.3249 -0.0142 1.27222e-014 -1.59028e-015 4.77083e-015 -0.6113 -8.7231 -2.0637 5.10457e-006 4.50044e-006 5.43682e-006 0.1927 -3.8059 -0.2383 0.0162832 0.00302013 -0.000862917 0.1091 -2.1688 -0.1362 -2.64834e-031 -4.77083e-015 -3.18055e-015 0.6151 -8.0947 -3.564 5.10457e-006 4.50044e-006 5.43682e-006 0.4882 -2.341 -0.6462 0.0145174 0.0036564 -0.00325092 0.3574 -1.7166 -0.4742 -1.59028e-014 6.36111e-015 -1.59028e-015 1.4199 -1.8761 1.4221 5.10457e-006 4.50044e-006 5.43682e-006 1.1472 -3.4929 2.6336 -5.10457e-006 -4.50044e-006 -5.43682e-006 0.8229 -2.3 1.6571 9.54166e-015 1.43125e-014 7.95139e-015 -9.412 3.9771 -0.7758 -55.0742 -45.5029 -126.109 -0.7531 -40.938 0 2.12234 54.8782 -2.42424 -1.77636e-015 -40.1986 -3.55271e-015 -3.19332 14.5286 -7.89659 1.77636e-015 -4.4182 9.239 -5.49536e-006 -2.98822e-006 -3.66344e-006 9.4119 3.9773 -0.7758 55.0754 -45.5072 126.085 0.7532 -40.9383 -7.10543e-015 -2.17 54.8961 2.43541 -1.77636e-015 -40.1986 0 3.1931 14.5356 7.90332 1.77636e-015 -4.4182 9.239 -7.03105e-006 -6.38632e-006 9.40321e-006 
39.8407 -4.20282 8.82002 1.40558e-008 -25.0011 6.44718e-008 0 8.7983 -4.7612 -0.0124016 -2.58237 -0.130246 -7.10543e-015 8.0291 0.4195 -0.0307332 -5.16468 -0.26145 -7.10543e-015 9.9351 -2.2114 -0.0307332 -5.16467 -0.26145 -7.10543e-015 22.3885 -0.4656 5.82439e-007 17.371 -2.69453e-006 -0.0001 12.643 3.4389 -2.23883e-008 7.86681 -1.48462e-008 2.2603 21.606 7.4023 -13.4209 12.5672 -10.5333 13.5163 -1.1332 -5.0146 36.0512 -33.0636 33.6899 -0.0995 -28.05 -0.2431 2.48709 -19.3409 -32.8425 0.0679 -23.3996 -0.1402 -53.3325 16.1243 -7.8961 0.7932 -9.069 2.5189 8.97042e-007 9.83103e-007 2.01021e-006 -0.8272 -3.3923 0.5977 -3.18055e-015 9.54166e-015 -3.18055e-015 -0.5649 -2.3158 0.4082 -3.18055e-015 1.59028e-015 1.59028e-015 0.9159 -9.2044 0.2193 8.97042e-007 9.83103e-007 2.01021e-006 0.0117 -4.1944 -0.0248 -0.0128331 0.00231652 8.05947e-005 0.0071 -2.3249 -0.0142 1.00045e-005 2.11388e-005 8.23875e-006 0.6113 -8.7231 -2.0637 8.97042e-007 9.83103e-007 2.01021e-006 -0.1927 -3.8059 -0.2383 -0.0160769 0.00300502 0.000859959 -0.1091 -2.1688 -0.1362 6.62086e-031 7.95139e-015 -4.77083e-015 -0.6151 -8.0947 -3.5641 8.97042e-007 9.83103e-007 2.01021e-006 -0.4882 -2.341 -0.6462 -0.012556 0.00310005 0.00280862 -0.3575 -1.7167 -0.4742 3.18055e-015 0 -1.59028e-015 -1.42 -1.8761 1.4223 8.97042e-007 9.83103e-007 2.01021e-006 -1.1471 -3.4929 2.6334 -3.18055e-015 9.54166e-015 -3.18055e-015 -0.823 -2.3 1.6571 -3.18055e-015 1.59028e-015 1.59028e-015 -2.2603 21.606 7.4023 12.5895 12.514 5.51894 -13.5187 -1.1334 -5.0155 -32.9064 -34.3872 -28.6471 0.0994 -28.0499 -0.2431 -3.29047 -20.5853 32.1132 -0.0679 -23.3996 -0.1402 53.1244 16.8996 9.37112 -0.7932 -9.0691 2.5189 6.36111e-015 3.18055e-015 6.36111e-015 0.8272 -3.3923 0.5977 -3.18055e-015 -3.18055e-015 -4.77083e-015 0.565 -2.3158 0.4082 5.29669e-031 4.77083e-015 -6.36111e-015 -0.916001 -9.2044 0.2193 6.36111e-015 3.18055e-015 6.36111e-015 -0.0117 -4.1944 -0.0248 0.0129642 0.00231684 -9.10303e-005 -0.0071 -2.3249 -0.0142 -4.41391e-032 1.59028e-015 1.59028e-015 -0.6113 -8.7231 -2.0637 6.36111e-015 3.18055e-015 6.36111e-015 0.1927 -3.8059 -0.2383 0.0163557 0.00301688 -0.000865599 0.1091 -2.1688 -0.1362 3.18055e-015 1.59028e-015 -0 0.6151 -8.0947 -3.564 6.36111e-015 3.18055e-015 6.36111e-015 0.4882 -2.341 -0.6462 0.0145467 0.00365968 -0.00325675 0.3574 -1.7166 -0.4742 3.18055e-015 1.59028e-015 -7.95139e-015 1.4199 -1.8761 1.4221 6.36111e-015 3.18055e-015 6.36111e-015 1.1472 -3.4929 2.6336 -3.18055e-015 -3.18055e-015 -4.77083e-015 0.8229 -2.3 1.6571 5.29669e-031 4.77083e-015 -6.36111e-015 -9.412 3.9771 -0.7758 -52.5316 -50.9055 -121.923 -0.7531 -40.938 -3.55271e-015 2.03059 51.408 -2.26141 -1.77636e-015 -40.1986 -3.55271e-015 -3.31064 13.4223 -7.37828 1.77636e-015 -4.4182 9.239 1.59028e-015 3.18055e-015 -0 9.4119 3.9773 -0.7758 52.5094 -50.9185 121.881 0.7532 -40.9383 0 -2.06937 51.4054 2.26662 1.77636e-015 -40.1986 0 3.31085 13.4291 7.38446 3.55271e-015 -4.4182 9.239 2.69583e-006 -9.19645e-007 4.94911e-006 
39.8407 -4.20169 8.66205 5.56789e-009 -25.0011 2.57742e-008 0 8.7983 -4.7612 -0.0139451 -2.23425 -0.130025 0 8.0291 0.4195 -0.0330063 -4.46845 -0.260891 -1.42109e-014 9.9351 -2.2114 -0.0330064 -4.46844 -0.260891 7.10543e-015 22.3885 -0.4656 1.35023e-006 16.9 -6.34666e-006 -0.0001 12.643 3.4389 6.11991e-008 7.01526 3.5815e-008 2.2603 21.606 7.4023 -12.9979 11.2661 -11.7046 13.5163 -1.1332 -5.0146 36.6868 -33.0447 34.1279 -0.0995 -28.05 -0.2431 2.53817 -18.6879 -32.8548 0.0679 -23.3996 -0.1402 -53.0945 15.353 -7.75083 0.7932 -9.069 2.5189 -6.36111e-015 4.77083e-015 -4.77083e-015 -0.8272 -3.3923 0.5977 3.97252e-031 -4.77083e-015 4.77083e-015 -0.5649 -2.3158 0.4082 -3.18055e-015 3.18055e-015 -0 0.9159 -9.2044 0.2193 -6.36111e-015 4.77083e-015 -4.77083e-015 0.0117 -4.1944 -0.0248 -0.0128386 0.00234564 8.72012e-005 0.0071 -2.3249 -0.0142 -3.18055e-015 1.59028e-015 6.36111e-015 0.6113 -8.7231 -2.0637 -6.36111e-015 4.77083e-015 -4.77083e-015 -0.1927 -3.8059 -0.2383 -0.0160365 0.0030068 0.000860174 -0.1091 -2.1688 -0.1362 3.18055e-015 -6.36111e-015 -1.59028e-015 -0.6151 -8.0947 -3.5641 -6.36111e-015 4.77083e-015 -4.77083e-015 -0.4882 -2.341 -0.6462 -0.0126041 0.00312957 0.00283112 -0.3575 -1.7167 -0.4742 -3.18055e-015 -4.77083e-015 4.77083e-015 -1.42 -1.8761 1.4223 -6.36111e-015 4.77083e-015 -4.77083e-015 -1.1471 -3.4929 2.6334 3.97252e-031 -4.77083e-015 4.77083e-015 -0.823 -2.3 1.6571 -3.18055e-015 3.18055e-015 -0 -2.2603 21.606 7.4023 12.1905 11.2213 6.69046 -13.5187 -1.1334 -5.0155 -33.5676 -34.4103 -29.1349 0.0994 -28.0499 -0.2431 -3.32008 -19.9177 32.1497 -0.0679 -23.3996 -0.1402 52.8928 16.0965 9.18713 -0.7932 -9.0691 2.5189 -4.41391e-032 -1.59028e-015 -1.59028e-015 0.8272 -3.3923 0.5977 8.82781e-032 3.18055e-015 -1.59028e-015 0.565 -2.3158 0.4082 -3.18055e-015 0 -0 -0.916 -9.2044 0.2193 -4.41391e-032 -1.59028e-015 -1.59028e-015 -0.0117 -4.1944 -0.0248 0.0129722 0.00230785 -8.07459e-005 -0.0071 -2.3249 -0.0142 -1.10348e-030 -7.95139e-015 -7.95139e-015 -0.6113 -8.7231 -2.0637 -4.41391e-032 -1.59028e-015 -1.59028e-015 0.1927 -3.8059 -0.2383 0.0163467 0.00303784 -0.000870028 0.1091 -2.1688 -0.1362 1.7464e-008 -3.41011e-006 3.52697e-006 0.6151 -8.0947 -3.564 -4.41391e-032 -1.59028e-015 -1.59028e-015 0.4882 -2.341 -0.6462 0.0145935 0.00367872 -0.00326101 0.3574 -1.7166 -0.4742 -3.42507e-006 -1.28003e-006 -3.50998e-006 1.4199 -1.8761 1.4221 -4.41391e-032 -1.59028e-015 -1.59028e-015 1.1472 -3.4929 2.6336 8.82781e-032 3.18055e-015 -1.59028e-015 0.8229 -2.3 1.6571 -3.18055e-015 0 -0 -9.412 3.9771 -0.7758 -52.5101 -50.9122 -121.888 -0.7531 -40.938 0 2.10786 50.8788 -2.30957 -8.88179e-016 -40.1986 -3.55271e-015 -3.31512 13.4468 -7.36837 3.55271e-015 -4.4182 9.239 -1.37447e-006 -7.03812e-006 2.14742e-006 9.4119 3.9773 -0.7758 52.4895 -50.9242 121.848 0.7532 -40.9383 7.10543e-015 -2.1455 50.8745 2.312 1.77636e-015 -40.1986 0 3.31538 13.4538 7.37447 -3.55271e-015 -4.4182 9.239 -2.01664e-005 -5.4942e-006 2.37109e-006 
